<svg width="39" height="35" viewBox="0 0 39 35" fill="none" xmlns="http://www.w3.org/2000/svg">
<path d="M19.5 0C14.7882 0 10.9688 3.85615 10.9688 8.61328C10.9688 12.4592 16.5445 19.4688 18.6807 22.0131C19.1134 22.5285 19.8873 22.5285 20.3193 22.0131C22.4555 19.4688 28.0313 12.4592 28.0313 8.61328C28.0313 3.85615 24.2118 0 19.5 0ZM19.5 11.4844C17.9292 11.4844 16.6562 10.1992 16.6562 8.61328C16.6562 7.02734 17.9292 5.74219 19.5 5.74219C21.0708 5.74219 22.3438 7.02734 22.3438 8.61328C22.3438 10.1992 21.0708 11.4844 19.5 11.4844ZM1.36229 14.7622C0.960225 14.9246 0.615557 15.2048 0.372741 15.5668C0.129925 15.9288 9.62953e-05 16.356 0 16.7932L0 33.9049C0 34.6787 0.773906 35.2078 1.48552 34.9207L10.8333 30.625V14.6918C10.2348 13.5994 9.74526 12.5357 9.39453 11.5186L1.36229 14.7622ZM19.5 24.5868C18.5473 24.5868 17.6461 24.1644 17.028 23.4274C15.6968 21.8415 14.281 20.0354 13 18.1829V30.6243L26 34.9993V18.1836C24.719 20.0354 23.3039 21.8422 21.972 23.4281C21.3539 24.1644 20.4527 24.5868 19.5 24.5868ZM37.5145 11.0168L28.1667 15.3125V35L37.6377 31.1753C38.0398 31.013 38.3846 30.7328 38.6274 30.3708C38.8702 30.0087 39 29.5816 39 29.1443V12.0326C39 11.2588 38.2261 10.7297 37.5145 11.0168Z" fill="white"/>
</svg>
