<svg width="39" height="35" viewBox="0 0 39 35" fill="none" xmlns="http://www.w3.org/2000/svg">
<path d="M37.1719 8.75H36.5625V5.46875C36.5625 2.40625 29.0063 0 19.5 0C9.99375 0 2.4375 2.40625 2.4375 5.46875V8.75H1.82812C0.818848 8.75 0 9.48418 0 10.3906V15.8594C0 16.7651 0.818848 17.5 1.82812 17.5H2.4375V28.4375C2.4375 29.6454 3.52904 30.625 4.875 30.625V32.8125C4.875 34.0204 5.96654 35 7.3125 35H9.75C11.096 35 12.1875 34.0204 12.1875 32.8125V30.625H26.8125V32.8125C26.8125 34.0204 27.904 35 29.25 35H31.6875C33.0335 35 34.125 34.0204 34.125 32.8125V30.625H34.6125C35.8312 30.625 36.5625 29.75 36.5625 28.875V17.5H37.1719C38.1812 17.5 39 16.7651 39 15.8594V10.3906C39 9.48418 38.1812 8.75 37.1719 8.75ZM12.1875 4.92188C12.1875 4.61973 12.4602 4.375 12.7969 4.375H26.2031C26.5398 4.375 26.8125 4.61973 26.8125 4.92188V6.01562C26.8125 6.31777 26.5398 6.5625 26.2031 6.5625H12.7969C12.4602 6.5625 12.1875 6.31777 12.1875 6.01562V4.92188ZM8.53125 27.3438C7.18529 27.3438 6.09375 26.3642 6.09375 25.1562C6.09375 23.9483 7.18529 22.9688 8.53125 22.9688C9.87721 22.9688 10.9688 23.9483 10.9688 25.1562C10.9688 26.3642 9.87721 27.3438 8.53125 27.3438ZM18.2812 19.6875H9.75C8.40404 19.6875 7.3125 18.7079 7.3125 17.5V10.9375C7.3125 9.72959 8.40404 8.75 9.75 8.75H18.2812V19.6875ZM20.7188 19.6875V8.75H29.25C30.596 8.75 31.6875 9.72959 31.6875 10.9375V17.5C31.6875 18.7079 30.596 19.6875 29.25 19.6875H20.7188ZM30.4688 27.3438C29.1228 27.3438 28.0312 26.3642 28.0312 25.1562C28.0312 23.9483 29.1228 22.9688 30.4688 22.9688C31.8147 22.9688 32.9062 23.9483 32.9062 25.1562C32.9062 26.3642 31.8147 27.3438 30.4688 27.3438Z" fill="white"/>
</svg>
