<svg width="39" height="48" viewBox="0 0 39 48" fill="none" xmlns="http://www.w3.org/2000/svg">
<path d="M10.3019 46.9508C-2.43351 34.2154 -2.41488 13.585 10.3019 0.868226C10.8608 0.309269 11.7267 0.218071 12.3867 0.630914L18.7431 4.60343C19.4345 5.03589 19.7179 5.90178 19.4148 6.65882L16.2366 14.6039C15.9581 15.3011 15.2511 15.7296 14.5039 15.6551L9.03099 15.1079C6.96677 20.821 7.00992 27.1176 9.03099 32.7111L14.5039 32.1639C15.2511 32.0894 15.9572 32.5179 16.2366 33.2152L19.4148 41.1602C19.7179 41.9172 19.4345 42.7831 18.7431 43.2156L12.3867 47.1881C11.7218 47.6039 10.8569 47.5058 10.3019 46.9508ZM24.9917 18.9931C26.1517 20.9593 26.1517 23.4069 24.9917 25.3721C24.6043 26.0281 23.7061 26.1527 23.1559 25.6251L22.5695 25.0632C22.1861 24.6955 22.0998 24.1198 22.3479 23.6501C22.8333 22.7313 22.8333 21.632 22.3479 20.7141C22.0998 20.2444 22.1861 19.6688 22.5695 19.3011L23.1559 18.7392C23.7061 18.2135 24.6043 18.3371 24.9917 18.9931ZM33.9919 10.0518C39.8893 17.0731 39.8844 27.299 33.9919 34.3154C33.5535 34.8381 32.7631 34.8793 32.2709 34.4066L31.7021 33.8614C31.2549 33.4328 31.2137 32.7307 31.6109 32.2551C36.4836 26.4165 36.4797 17.9448 31.6109 12.1111C31.2137 11.6355 31.2549 10.9334 31.7021 10.5048L32.2709 9.95961C32.7631 9.48793 33.5535 9.52911 33.9919 10.0518ZM29.4839 14.4587C33.0191 19.001 33.025 25.3584 29.4839 29.9085C29.0534 30.4616 28.2385 30.5214 27.7325 30.036L27.1618 29.4888C26.7303 29.0749 26.6715 28.4003 27.0353 27.9266C29.6379 24.5376 29.6369 19.8296 27.0353 16.4406C26.6715 15.9659 26.7303 15.2923 27.1618 14.8784L27.7325 14.3312C28.2385 13.8458 29.0534 13.9056 29.4839 14.4587Z" fill="white"/>
</svg>
