<svg width="39" height="38" viewBox="0 0 39 38" fill="none" xmlns="http://www.w3.org/2000/svg">
<path d="M13.4062 16.0314H25.5938C26.2671 16.0314 26.8125 15.5 26.8125 14.8439V13.6564C26.8125 13.0003 26.2671 12.4689 25.5938 12.4689H13.4062C12.7329 12.4689 12.1875 13.0003 12.1875 13.6564V14.8439C12.1875 15.5 12.7329 16.0314 13.4062 16.0314ZM12.1875 21.9688C12.1875 22.6249 12.7329 23.1563 13.4062 23.1563H25.5938C26.2671 23.1563 26.8125 22.6249 26.8125 21.9688V20.7814C26.8125 20.1253 26.2671 19.5939 25.5938 19.5939H13.4062C12.7329 19.5939 12.1875 20.1253 12.1875 20.7814V21.9688ZM19.5 30.9589C18.2493 30.9589 16.9985 30.5834 15.9306 29.8315L0 18.6186V34.4375C0 36.405 1.63693 38 3.65625 38H35.3438C37.3631 38 39 36.405 39 34.4375V18.6186L23.0694 29.8315C22.0015 30.5826 20.7507 30.9589 19.5 30.9589ZM37.5992 12.0941C36.9251 11.579 36.286 11.0944 35.3438 10.4012V7.12519C35.3438 5.15766 33.7068 3.56271 31.6875 3.56271H25.7804C25.5488 3.39943 25.3332 3.24654 25.0918 3.07583C23.8113 2.16518 21.2672 -0.0257474 19.5 0.000228991C17.7328 -0.0257474 15.1894 2.16518 13.9082 3.07583C13.6668 3.24654 13.4512 3.39943 13.2196 3.56271H7.3125C5.29318 3.56271 3.65625 5.15766 3.65625 7.12519V10.4012C2.714 11.0936 2.07492 11.579 1.4008 12.0941C0.964456 12.4273 0.611595 12.8528 0.368911 13.3385C0.126226 13.8241 7.50907e-05 14.3572 0 14.8973L0 15.6877L7.3125 20.8348V7.12519H31.6875V20.8348L39 15.6877V14.8973C39 13.8033 38.4836 12.7695 37.5992 12.0941Z" fill="white"/>
</svg>
