<svg width="35" height="35" viewBox="0 0 25 24" fill="none" xmlns="http://www.w3.org/2000/svg">
<path d="M12.259 0C5.5081 0 0.0333252 5.37207 0.0333252 11.9963C0.0333252 18.6206 5.5081 23.9926 12.259 23.9926C19.0099 23.9926 24.4847 18.6206 24.4847 11.9963C24.4847 5.37207 19.0099 0 12.259 0ZM12.259 4.2132L19.4928 8.64H5.02268L12.259 4.2132ZM19.5829 15.7086C19.5829 16.4182 18.9949 16.9952 18.2717 16.9952H6.24375C5.52062 16.9952 4.9326 16.4207 4.9326 15.7086V8.92235C4.9326 8.84624 4.94011 8.77504 4.95262 8.70138L11.8662 12.9318C11.8737 12.9367 11.8837 12.9416 11.8912 12.9465C11.9012 12.9514 11.9087 12.9563 11.9187 12.9612C11.9687 12.9858 12.0188 13.0054 12.0688 13.0177C12.0738 13.0202 12.0788 13.0202 12.0838 13.0202C12.1414 13.0324 12.1964 13.0422 12.254 13.0422C12.3115 13.0422 12.3691 13.0349 12.4241 13.0202C12.4291 13.0177 12.4341 13.0177 12.4391 13.0177C12.4917 13.0054 12.5417 12.9858 12.5893 12.9612C12.5993 12.9563 12.6068 12.9514 12.6168 12.9465C12.6243 12.9416 12.6343 12.9391 12.6418 12.9318L19.5554 8.70138C19.5679 8.77258 19.5754 8.84624 19.5754 8.92235L19.5829 15.7086Z" fill="white"/>
</svg>
