<svg width="25" height="24" viewBox="0 0 25 24" fill="none" xmlns="http://www.w3.org/2000/svg">
<path d="M15.0831 11.9963C15.0831 13.2657 14.0347 14.292 12.7436 14.292C11.4525 14.292 10.4041 13.2632 10.4041 11.9963C10.4041 10.7294 11.4525 9.70068 12.7436 9.70068C14.0347 9.70068 15.0831 10.7294 15.0831 11.9963Z" fill="white"/>
<path d="M18.2158 7.93289C18.1032 7.63335 17.9231 7.36327 17.6904 7.13985C17.4627 6.91151 17.1874 6.73473 16.8822 6.62424C16.6344 6.53094 16.2641 6.418 15.5785 6.38609C14.8379 6.35417 14.6152 6.3468 12.741 6.3468C10.8669 6.3468 10.6442 6.35417 9.90357 6.38609C9.21797 6.418 8.84765 6.52849 8.59993 6.62424C8.29466 6.73473 8.01942 6.91151 7.79173 7.13985C7.55902 7.36327 7.37886 7.63335 7.26626 7.93289C7.17118 8.17596 7.05608 8.53933 7.02355 9.21207C6.99102 9.93882 6.98352 10.1573 6.98352 11.9963C6.98352 13.8353 6.99102 14.0538 7.02355 14.7806C7.05358 15.4533 7.16868 15.8167 7.26626 16.0597C7.37886 16.3593 7.55902 16.6294 7.79173 16.8528C8.01942 17.0811 8.29466 17.2579 8.59993 17.3684C8.84765 17.4617 9.21797 17.5746 9.90357 17.6065C10.6442 17.6385 10.8644 17.6458 12.741 17.6458C14.6152 17.6458 14.8379 17.6385 15.5785 17.6065C16.2641 17.5771 16.6344 17.4641 16.8822 17.3684C17.4952 17.1376 17.9781 16.6613 18.2133 16.0622C18.3084 15.8191 18.4235 15.4558 18.456 14.783C18.4886 14.0563 18.4961 13.8377 18.4961 11.9988C18.4961 10.1598 18.4886 9.94128 18.456 9.21453C18.426 8.54179 18.3134 8.17596 18.2158 7.93289ZM12.7435 15.5343C10.7518 15.5343 9.1379 13.9507 9.1379 11.9963C9.1379 10.0419 10.7518 8.45831 12.7435 8.45831C14.7353 8.45831 16.3492 10.0419 16.3492 11.9963C16.3492 13.9507 14.7353 15.5343 12.7435 15.5343ZM16.4918 9.14578C16.0264 9.14578 15.6486 8.77504 15.6486 8.31836C15.6486 7.86169 16.0264 7.49094 16.4918 7.49094C16.9572 7.49094 17.3351 7.86169 17.3351 8.31836C17.3326 8.77504 16.9572 9.14578 16.4918 9.14578Z" fill="white"/>
<path d="M12.7436 0C5.99267 0 0.517883 5.37207 0.517883 11.9963C0.517883 18.6206 5.99267 23.9926 12.7436 23.9926C19.4945 23.9926 24.9692 18.6206 24.9692 11.9963C24.9692 5.37207 19.4945 0 12.7436 0ZM19.7222 14.837C19.6871 15.5712 19.5695 16.072 19.3969 16.5091C19.0316 17.4347 18.2859 18.1663 17.3426 18.5248C16.8972 18.6942 16.3867 18.8121 15.6386 18.844C14.8904 18.8784 14.6502 18.8857 12.7436 18.8857C10.8369 18.8857 10.5967 18.8784 9.84853 18.844C9.10038 18.8096 8.58994 18.6942 8.14455 18.5248C7.67664 18.3529 7.25127 18.0804 6.90096 17.7293C6.54315 17.3856 6.26791 16.9682 6.09025 16.5091C5.9176 16.072 5.79749 15.5712 5.76497 14.837C5.72994 14.1029 5.72243 13.8672 5.72243 11.9963C5.72243 10.1254 5.72994 9.88972 5.76497 9.1556C5.8 8.42148 5.9176 7.92061 6.09025 7.48358C6.2654 7.02445 6.54315 6.60706 6.90096 6.26332C7.25127 5.91222 7.67664 5.64215 8.14455 5.46783C8.58994 5.29841 9.10038 5.18056 9.84853 5.14864C10.5967 5.11427 10.8369 5.1069 12.7436 5.1069C14.6502 5.1069 14.8904 5.11427 15.6386 5.14864C16.3867 5.18302 16.8972 5.29841 17.3426 5.46783C17.8105 5.63969 18.2359 5.91222 18.5862 6.26332C18.944 6.60706 19.2192 7.02445 19.3969 7.48358C19.5695 7.92061 19.6896 8.42148 19.7222 9.1556C19.7572 9.88972 19.7647 10.1254 19.7647 11.9963C19.7647 13.8672 19.7572 14.1029 19.7222 14.837Z" fill="white"/>
</svg>
