<svg width="75" height="82" viewBox="0 0 75 82" fill="none" xmlns="http://www.w3.org/2000/svg">
<path d="M10.4917 7.6145H74.7299V9.33H10.4917V7.6145ZM10.4917 7.6145H12.2078V82H10.4917V7.6145ZM74.7299 82V80.2845V82ZM27.836 82H10.4917V80.2845H27.836V82ZM74.7299 82H73.0138H74.7299ZM74.7299 51.502H73.0138V7.6145H74.7299V51.502Z" fill="#161616"/>
<path d="M29.5477 81.8812H30.5688V78.3758C30.6346 78.353 30.7404 78.3272 30.8806 78.2986C31.0207 78.2729 31.158 78.2586 31.2924 78.2586C31.4669 78.2586 31.6128 78.2815 31.73 78.3301C31.8502 78.3758 31.9417 78.453 32.0132 78.556C32.0847 78.6618 32.1333 78.7961 32.1648 78.962C32.1962 79.1278 32.2105 79.3279 32.2105 79.5653V81.8812H33.2316V79.4051C33.2316 79.0992 33.203 78.8247 33.143 78.5788C33.0829 78.3301 32.9828 78.1185 32.8426 77.9413C32.7025 77.764 32.5166 77.6267 32.282 77.5295C32.0504 77.4295 31.7558 77.3809 31.4011 77.3809C31.2552 77.3809 31.1094 77.3952 30.9606 77.4237C30.8119 77.4523 30.6804 77.4866 30.5688 77.5238V75.3423L29.5477 75.511V81.8812ZM38.44 79.6739C38.44 79.3251 38.3885 79.0077 38.2855 78.7247C38.1797 78.4416 38.0367 78.1986 37.8508 77.9956C37.6649 77.7954 37.4418 77.6382 37.1815 77.5295C36.9184 77.418 36.6352 77.3637 36.3263 77.3637C36.0146 77.3637 35.7314 77.418 35.474 77.5295C35.2137 77.6382 34.9906 77.7954 34.8047 77.9956C34.6159 78.1986 34.4701 78.4416 34.3642 78.7247C34.2613 79.0077 34.2098 79.3251 34.2098 79.6739C34.2098 80.0227 34.2613 80.3401 34.3642 80.626C34.4701 80.9119 34.6131 81.1578 34.799 81.3579C34.9849 81.5609 35.208 81.7182 35.4654 81.8297C35.7228 81.9441 36.0117 81.9984 36.3263 81.9984C36.6409 81.9984 36.927 81.9441 37.1901 81.8297C37.4504 81.7182 37.6735 81.5609 37.8594 81.3579C38.0453 81.1578 38.1883 80.9119 38.2884 80.626C38.3914 80.3401 38.44 80.0227 38.44 79.6739ZM37.396 79.6739C37.396 80.1171 37.3016 80.4687 37.1129 80.7261C36.9241 80.9863 36.661 81.1149 36.3263 81.1149C35.9888 81.1149 35.7257 80.9863 35.5369 80.7261C35.3481 80.4687 35.2538 80.1171 35.2538 79.6739C35.2538 79.2364 35.3481 78.8876 35.5369 78.6332C35.7257 78.3758 35.9888 78.25 36.3263 78.25C36.661 78.25 36.9241 78.3758 37.1129 78.6332C37.3016 78.8876 37.396 79.2364 37.396 79.6739ZM39.4439 76.3115V80.1285C39.4439 80.4201 39.4696 80.6803 39.5211 80.9091C39.5697 81.1349 39.6584 81.3293 39.7814 81.4895C39.9044 81.6496 40.0731 81.7725 40.2819 81.8554C40.4936 81.9412 40.7567 81.9812 41.0713 81.9812C41.3287 81.9812 41.5547 81.9555 41.7463 81.9012C41.9351 81.8497 42.0895 81.7982 42.2097 81.7468L42.0409 80.9376C41.9551 80.972 41.8407 81.0063 41.6977 81.0463C41.5547 81.0863 41.3917 81.1063 41.2058 81.1063C40.9369 81.1063 40.7453 81.0291 40.6337 80.8776C40.5193 80.7261 40.465 80.4745 40.465 80.1199V78.3244H42.0323V77.4752H40.465V76.1428L39.4439 76.3115ZM42.6988 79.6996C42.6988 80.0313 42.7417 80.3344 42.8332 80.6117C42.9219 80.8919 43.0591 81.1321 43.2451 81.3379C43.431 81.5438 43.6684 81.7039 43.9544 81.8183C44.2404 81.9326 44.5779 81.9898 44.964 81.9898C45.1156 81.9898 45.2672 81.9812 45.4131 81.9641C45.5589 81.9498 45.6934 81.9269 45.8221 81.9012C45.9479 81.8783 46.0595 81.8497 46.1567 81.8183C46.2568 81.7868 46.334 81.7582 46.3884 81.7296L46.2539 80.8948C46.1367 80.9462 45.9765 80.9948 45.7706 81.0377C45.5646 81.0835 45.3387 81.1063 45.0927 81.1063C44.6694 81.1063 44.3491 81.0091 44.126 80.8147C43.9058 80.6203 43.7799 80.3487 43.7513 79.9941H46.6601C46.6658 79.9369 46.6687 79.874 46.6715 79.8054C46.6744 79.7339 46.6773 79.671 46.6773 79.6139C46.6773 78.8676 46.5056 78.3044 46.1653 77.9298C45.8278 77.5524 45.353 77.3637 44.7466 77.3637C44.4864 77.3637 44.2347 77.4123 43.9887 77.5124C43.7399 77.6096 43.5196 77.7554 43.3309 77.9498C43.1392 78.1443 42.9848 78.3873 42.8704 78.6789C42.756 78.9705 42.6988 79.3108 42.6988 79.6996ZM45.6562 79.245H43.7599C43.777 79.1135 43.8085 78.9877 43.8514 78.8648C43.8972 78.7418 43.9601 78.6303 44.043 78.536C44.1231 78.4416 44.2232 78.3644 44.3405 78.3044C44.4606 78.2443 44.5979 78.2157 44.7552 78.2157C44.9068 78.2157 45.0355 78.2415 45.1471 78.2958C45.2557 78.3501 45.3501 78.4216 45.4245 78.5159C45.5017 78.6074 45.5589 78.7161 45.5961 78.8447C45.6362 78.9705 45.6562 79.1021 45.6562 79.245ZM49.2886 81.9641L49.4316 81.1235C49.2972 81.1063 49.1856 81.0835 49.0998 81.052C49.014 81.0206 48.9425 80.9748 48.8939 80.9176C48.8424 80.8576 48.8081 80.7861 48.7881 80.7003C48.768 80.6174 48.7595 80.5145 48.7595 80.3887V75.3423L47.7384 75.511V80.5831C47.7384 80.8033 47.7613 80.9977 47.8099 81.1692C47.8585 81.3408 47.9414 81.4837 48.0587 81.5981C48.176 81.7153 48.3361 81.8011 48.5364 81.864C48.7337 81.9269 48.9854 81.9612 49.2886 81.9641ZM51.9371 80.3315C51.9371 80.5173 51.9686 80.7032 52.0343 80.8948C52.0973 81.0863 52.2088 81.2607 52.3633 81.418C52.5177 81.5752 52.7208 81.7039 52.9725 81.804C53.227 81.9069 53.5416 81.9584 53.9163 81.9584C54.2939 81.9584 54.6314 81.8926 54.9288 81.7639C55.2263 81.6353 55.4894 81.4666 55.7211 81.2579C55.8155 81.3522 55.907 81.458 55.9957 81.5695C56.0815 81.681 56.153 81.7868 56.2102 81.8812H57.2713C57.1598 81.661 57.0167 81.4409 56.8451 81.2207C56.6764 80.9977 56.4962 80.7833 56.3103 80.5745C56.4562 80.3286 56.5763 80.0685 56.6649 79.7968C56.7565 79.5224 56.8137 79.2736 56.8423 79.0506L55.9899 78.9391C55.9642 79.1135 55.9242 79.2936 55.8727 79.4766C55.8212 79.6567 55.7583 79.8226 55.6782 79.9684L54.5255 78.8047C54.6771 78.7218 54.8173 78.6246 54.9488 78.5159C55.0833 78.4044 55.1977 78.2844 55.3006 78.1528C55.4008 78.0213 55.4808 77.8755 55.5409 77.7182C55.5981 77.561 55.6296 77.3923 55.6296 77.2122C55.6296 77.032 55.5952 76.8634 55.5323 76.7032C55.4665 76.5431 55.3722 76.403 55.2492 76.2858C55.1262 76.1686 54.9689 76.0742 54.7801 76.0085C54.5942 75.9398 54.3768 75.9055 54.1366 75.9055C53.6646 75.9055 53.2842 76.0399 52.9954 76.303C52.7036 76.566 52.5606 76.9348 52.5606 77.4066C52.5606 77.6325 52.6121 77.844 52.7151 78.047C52.8209 78.25 52.9553 78.4416 53.1241 78.6189C52.9668 78.7046 52.818 78.799 52.675 78.9076C52.532 79.0134 52.4033 79.1364 52.2946 79.2765C52.1859 79.4166 52.0973 79.5738 52.0343 79.7482C51.9686 79.9226 51.9371 80.1171 51.9371 80.3315ZM52.9153 80.2629C52.9153 80.1114 52.9382 79.977 52.9868 79.8626C53.0325 79.7482 53.0926 79.6482 53.167 79.5595C53.2413 79.4738 53.3214 79.3994 53.4101 79.3365C53.5016 79.2736 53.5874 79.2222 53.6732 79.1764L55.1576 80.6832C55.0089 80.8319 54.8344 80.9434 54.6285 81.0206C54.4254 81.1006 54.1966 81.1406 53.9421 81.1406C53.7562 81.1406 53.5989 81.1121 53.4673 81.0549C53.3329 81.0005 53.227 80.9262 53.1469 80.8404C53.064 80.7547 53.0068 80.6603 52.9696 80.5574C52.9324 80.4573 52.9153 80.3601 52.9153 80.2629ZM54.7429 77.2551C54.7429 77.3837 54.7229 77.4981 54.68 77.601C54.6371 77.7011 54.5827 77.7954 54.5112 77.8784C54.4426 77.9641 54.3597 78.0385 54.2681 78.1071C54.1737 78.1728 54.0736 78.2357 53.9678 78.2901C53.8105 78.1443 53.6875 77.9927 53.596 77.8326C53.5073 77.6725 53.4616 77.5095 53.4616 77.3466C53.4616 77.1521 53.5188 76.9892 53.6303 76.8576C53.7419 76.729 53.9049 76.6661 54.1194 76.6661C54.3225 76.6661 54.4769 76.7233 54.5827 76.8376C54.6886 76.952 54.7429 77.0921 54.7429 77.2551ZM62.4654 78.393L62.6427 77.5324C62.5912 77.5152 62.5226 77.4981 62.4396 77.4781C62.3538 77.4581 62.268 77.4409 62.1793 77.4266C62.0878 77.4123 61.9992 77.4037 61.9076 77.3952C61.819 77.3866 61.7389 77.3809 61.6731 77.3809C61.3127 77.3809 60.9867 77.4123 60.6892 77.4781C60.3946 77.5438 60.1486 77.6125 59.9541 77.6839V81.8812H60.9724V78.3501C61.0238 78.333 61.1125 78.3129 61.2383 78.2901C61.3642 78.2701 61.4843 78.2586 61.5959 78.2586C61.7932 78.2586 61.9648 78.2729 62.1136 78.3044C62.2651 78.3358 62.3796 78.3644 62.4654 78.393ZM63.106 79.6996C63.106 80.0313 63.1489 80.3344 63.2405 80.6117C63.3291 80.8919 63.4664 81.1321 63.6523 81.3379C63.8382 81.5438 64.0756 81.7039 64.3616 81.8183C64.6477 81.9326 64.9852 81.9898 65.3741 81.9898C65.5257 81.9898 65.6745 81.9812 65.8203 81.9641C65.9662 81.9498 66.1006 81.9269 66.2293 81.9012C66.3552 81.8783 66.4667 81.8497 66.5668 81.8183C66.6641 81.7868 66.7413 81.7582 66.7985 81.7296L66.6612 80.8948C66.544 80.9462 66.3838 80.9948 66.1778 81.0377C65.9719 81.0835 65.746 81.1063 65.5 81.1063C65.0767 81.1063 64.7563 81.0091 64.5333 80.8147C64.313 80.6203 64.1872 80.3487 64.1586 79.9941H67.0674C67.0731 79.9369 67.0759 79.874 67.0788 79.8054C67.0817 79.7339 67.0845 79.671 67.0845 79.6139C67.0845 78.8676 66.9129 78.3044 66.5754 77.9298C66.2351 77.5524 65.7603 77.3637 65.1539 77.3637C64.8965 77.3637 64.6419 77.4123 64.396 77.5124C64.1471 77.6096 63.9298 77.7554 63.7381 77.9498C63.5465 78.1443 63.392 78.3873 63.2776 78.6789C63.1632 78.9705 63.106 79.3108 63.106 79.6996ZM66.0634 79.245H64.1672C64.1843 79.1135 64.2158 78.9877 64.2615 78.8648C64.3044 78.7418 64.3674 78.6303 64.4503 78.536C64.5304 78.4416 64.6305 78.3644 64.7478 78.3044C64.8679 78.2443 65.0052 78.2157 65.1625 78.2157C65.3141 78.2157 65.4457 78.2415 65.5543 78.2958C65.663 78.3501 65.7574 78.4216 65.8318 78.5159C65.909 78.6074 65.9662 78.7161 66.0062 78.8447C66.0434 78.9705 66.0634 79.1021 66.0634 79.245ZM69.2668 81.1492C68.998 81.1492 68.7577 81.1206 68.5461 81.0634C68.3344 81.0063 68.1542 80.9491 68.0026 80.8862L67.8253 81.7382C67.9226 81.7782 68.0884 81.8297 68.323 81.8926C68.5604 81.9584 68.8721 81.9898 69.2582 81.9898C69.8389 81.9898 70.2822 81.8812 70.5939 81.6667C70.9057 81.4494 71.063 81.1321 71.063 80.7089C71.063 80.5145 71.0373 80.3458 70.9858 80.2057C70.9372 80.0627 70.8571 79.9398 70.7455 79.8283C70.6369 79.7196 70.4967 79.6224 70.3308 79.5338C70.1621 79.448 69.9561 79.3594 69.713 79.2679C69.5671 79.2193 69.4442 79.1678 69.3441 79.1221C69.2411 79.0735 69.161 79.0249 69.0981 78.9791C69.038 78.9305 68.9923 78.8791 68.9694 78.8219C68.9436 78.7675 68.9293 78.7018 68.9293 78.6275C68.9293 78.4816 68.9951 78.373 69.1238 78.3044C69.2525 78.2329 69.4213 78.1986 69.6301 78.1986C69.8589 78.1986 70.062 78.2186 70.2364 78.2615C70.4109 78.3044 70.5539 78.3501 70.6654 78.4016L70.8514 77.5753C70.7341 77.5295 70.5568 77.4838 70.3222 77.4352C70.0848 77.3894 69.8389 77.3637 69.5786 77.3637C69.0666 77.3637 68.6633 77.4809 68.3659 77.7154C68.0684 77.947 67.9197 78.2672 67.9197 78.6703C67.9197 78.8791 67.9512 79.0535 68.0169 79.1964C68.0799 79.3394 68.1685 79.4623 68.2801 79.5653C68.3945 79.6653 68.526 79.754 68.6805 79.8283C68.8349 79.9055 69.0066 79.977 69.1925 80.0456C69.4956 80.1571 69.713 80.26 69.8446 80.3572C69.9761 80.4516 70.0419 80.5717 70.0419 80.7175C70.0419 80.8747 69.9819 80.9863 69.856 81.052C69.733 81.1149 69.5357 81.1492 69.2668 81.1492ZM71.964 76.3115V80.1285C71.964 80.4201 71.9897 80.6803 72.0412 80.9091C72.0898 81.1349 72.1785 81.3293 72.3015 81.4895C72.4244 81.6496 72.5932 81.7725 72.8049 81.8554C73.0136 81.9412 73.2768 81.9812 73.5914 81.9812C73.8488 81.9812 74.0748 81.9555 74.2664 81.9012C74.458 81.8497 74.6125 81.7982 74.7297 81.7468L74.561 80.9376C74.478 80.972 74.3636 81.0063 74.2206 81.0463C74.0776 81.0863 73.9117 81.1063 73.7258 81.1063C73.457 81.1063 73.2653 81.0291 73.1538 80.8776C73.0422 80.7261 72.985 80.4745 72.985 80.1199V78.3244H74.5524V77.4752H72.985V76.1428L71.964 76.3115Z" fill="#161616"/>
<path d="M41.8182 -7.15056e-05L0 40.3691L1.00958 41.4142L42.8278 1.04502L41.8182 -7.15056e-05Z" fill="#161616"/>
<path d="M47.6786 71.3025H49.3032L46.6947 65.264L49.2116 59.6371H47.6557L45.4362 64.7379H44.3379V54.3077H42.8278V71.3025H44.3379V66.0874H45.4362L47.6786 71.3025ZM51.3854 71.0052C51.8573 71.3254 52.621 71.4855 53.6735 71.4855C54.7403 71.4855 55.5069 71.3254 55.9731 71.0052C56.4393 70.6849 56.7425 70.1274 56.8883 69.3354C57.0342 68.5434 57.1057 67.2625 57.1057 65.4927C57.1057 63.7086 57.0342 62.4162 56.8883 61.6157C56.7425 60.8151 56.4393 60.2547 55.9731 59.9345C55.5069 59.6143 54.7403 59.4542 53.6735 59.4542C52.621 59.4542 51.8573 59.6143 51.3854 59.9345C50.9134 60.2547 50.6045 60.818 50.4587 61.6271C50.3128 62.4363 50.2413 63.7229 50.2413 65.4927C50.2413 67.2625 50.3128 68.5434 50.4587 69.3354C50.6045 70.1274 50.9134 70.6849 51.3854 71.0052ZM55.0006 69.8386C54.7403 70.0531 54.2999 70.1588 53.6735 70.1588C53.0471 70.1588 52.6095 70.0531 52.3578 69.8386C52.1061 69.6242 51.9431 69.2182 51.8659 68.6149C51.7887 68.0116 51.7515 66.9709 51.7515 65.4927C51.7515 63.9974 51.7887 62.9509 51.8659 62.3476C51.9431 61.7443 52.1061 61.3326 52.3578 61.1125C52.6095 60.8923 53.0471 60.7808 53.6735 60.7808C54.2999 60.7808 54.7403 60.8923 55.0006 61.1125C55.2609 61.3326 55.4239 61.7415 55.4926 62.3362C55.5612 62.9309 55.5955 63.9831 55.5955 65.4927C55.5955 66.988 55.5612 68.0316 55.4926 68.6263C55.4239 69.221 55.2609 69.6242 55.0006 69.8386ZM60.0116 71.0052C60.4836 71.3254 61.2472 71.4855 62.2998 71.4855C63.3666 71.4855 64.1331 71.3254 64.5993 71.0052C65.0655 70.6849 65.3687 70.1274 65.5146 69.3354C65.6605 68.5434 65.732 67.2625 65.732 65.4927C65.732 63.7086 65.6605 62.4162 65.5146 61.6157C65.3687 60.8151 65.0655 60.2547 64.5993 59.9345C64.1331 59.6143 63.3666 59.4542 62.2998 59.4542C61.2472 59.4542 60.4836 59.6143 60.0116 59.9345C59.5397 60.2547 59.2308 60.818 59.0849 61.6271C58.9391 62.4363 58.8676 63.7229 58.8676 65.4927C58.8676 67.2625 58.9391 68.5434 59.0849 69.3354C59.2308 70.1274 59.5397 70.6849 60.0116 71.0052ZM63.6269 69.8386C63.3666 70.0531 62.9261 70.1588 62.2998 70.1588C61.6734 70.1588 61.2358 70.0531 60.9841 69.8386C60.7324 69.6242 60.5694 69.2182 60.4921 68.6149C60.4149 68.0116 60.3777 66.9709 60.3777 65.4927C60.3777 63.9974 60.4149 62.9509 60.4921 62.3476C60.5694 61.7443 60.7324 61.3326 60.9841 61.1125C61.2358 60.8923 61.6734 60.7808 62.2998 60.7808C62.9261 60.7808 63.3666 60.8923 63.6269 61.1125C63.8872 61.3326 64.0502 61.7415 64.1188 62.3362C64.1875 62.9309 64.2218 63.9831 64.2218 65.4927C64.2218 66.988 64.1875 68.0316 64.1188 68.6263C64.0502 69.221 63.8872 69.6242 63.6269 69.8386ZM72.6421 71.3025H74.2667L71.6582 65.264L74.1752 59.6371H72.6192L70.3997 64.7379H69.3014V54.3077H67.7913V71.3025H69.3014V66.0874H70.3997L72.6421 71.3025Z" fill="#161616"/>
</svg>
