<svg width="45" height="45" viewBox="0 0 25 24" fill="none" xmlns="http://www.w3.org/2000/svg">
<path d="M12.2282 24C18.9841 24 24.4563 18.6304 24.4563 12.0012C24.4563 5.37207 18.9841 0 12.2282 0C5.47228 0 0 5.36962 0 11.9988C0 18.6279 5.47228 24 12.2282 24ZM5.59488 11.7385L17.3852 7.27734C17.9331 7.08338 18.4111 7.40747 18.2334 8.22015L16.2267 17.501C16.079 18.159 15.6787 18.3186 15.1232 18.0092L12.0655 15.7995L10.5918 17.1941C10.4291 17.3537 10.2915 17.4887 9.97621 17.4887L10.1939 14.4368L15.8588 9.4134C16.1066 9.1998 15.8038 9.07949 15.4785 9.29309L8.4774 13.6192L5.45977 12.6961C4.80169 12.4874 4.78667 12.0503 5.59488 11.7385Z" fill="white"/>
</svg>
