<svg width="50" height="35" viewBox="0 0 196 116" fill="none" xmlns="http://www.w3.org/2000/svg">
<path d="M56.6222 66.3295C56.6222 70.8255 52.971 74.4704 48.4671 74.4704C43.9632 74.4704 40.312 70.8255 40.312 66.3295C40.312 61.8334 43.9632 58.1885 48.4671 58.1885C52.971 58.1885 56.6222 61.833 56.6222 66.3295ZM146.783 58.1919C142.281 58.1919 138.631 61.8351 138.631 66.3295C138.631 70.8235 142.281 74.467 146.783 74.467C151.285 74.467 154.935 70.8238 154.935 66.3295C154.934 61.8351 151.285 58.1919 146.783 58.1919ZM177.2 105.575C155.875 122.255 125.043 118.52 108.335 97.2323L97.7931 112.968L87.3524 97.3635C70.9248 117.877 41.2032 121.784 20.0165 106.214C-1.78101 90.1951 -6.44316 59.5697 9.60366 37.8101C7.5403 30.8379 4.29179 24.2717 0 18.3981L30.7223 18.3811C50.8176 5.89885 74.1166 -0.47799 97.7791 0.0279296C120.876 -0.383113 143.595 5.91262 163.174 18.1498L195.915 18.175C191.584 24.0934 188.319 30.7201 186.267 37.7575C202.19 59.0717 198.165 89.1757 177.2 105.575V105.575ZM88.2565 66.7507C88.2541 45.1613 70.7203 27.6613 49.0932 27.6637C27.4662 27.6661 9.93611 45.1694 9.93815 66.7588C9.94053 88.3482 27.4744 105.848 49.1014 105.846C70.7135 105.82 88.2279 88.3387 88.2565 66.7642V66.7507V66.7507ZM97.9853 63.1993C99.8341 38.2527 120.277 18.7398 145.325 18.0136C130.325 11.5395 114.119 8.31933 97.7788 8.56627C81.4177 8.40788 65.1938 11.5569 50.0841 17.8237C75.3817 18.3611 96.1233 38.0092 97.9853 63.1993ZM183.635 53.4275C176.152 33.1707 153.636 22.8055 133.344 30.2756C113.052 37.7459 102.669 60.2229 110.152 80.4794V80.4903C117.651 100.738 140.163 111.093 160.454 103.627C180.74 96.1528 191.117 73.6799 183.635 53.4275V53.4275ZM72.6915 66.3271V66.3661C72.6721 79.7253 61.8074 90.5392 48.4249 90.5198C35.0425 90.5005 24.2097 79.6546 24.2291 66.2955C24.2485 52.9363 35.1133 42.1224 48.4957 42.1418C61.8547 42.1812 72.6697 52.9914 72.6915 66.3271ZM64.3506 66.3271V66.2985C64.3332 57.5401 57.2068 50.4539 48.4331 50.4712C39.6594 50.4886 32.5608 57.6026 32.5782 66.3607C32.5955 75.1192 39.722 82.2053 48.4954 82.188C57.2493 82.1496 64.3309 75.0655 64.3506 66.3271V66.3271ZM171.001 66.3271V66.3434C170.995 79.7025 160.14 90.5269 146.758 90.5198C133.375 90.5127 122.532 79.6777 122.539 66.3182C122.546 52.9591 133.4 42.1347 146.783 42.1418C160.152 42.1642 170.984 52.9808 171.001 66.3271ZM162.663 66.3244C162.66 57.5659 155.545 50.4682 146.772 50.4712C137.998 50.4743 130.888 57.5768 130.891 66.3352C130.894 75.0937 138.009 82.1911 146.783 82.1884C155.55 82.1727 162.652 75.0794 162.663 66.3274V66.3244Z" fill="white"/>
</svg>
