<svg width="24" height="24" viewBox="0 0 24 24" fill="none" xmlns="http://www.w3.org/2000/svg">
<path d="M15.2544 7.05636C13.1724 6.66106 11.0609 6.66106 8.97636 7.05636C8.06547 7.26014 6.91887 8.35764 6.69544 9.24152C6.32224 10.9504 6.32224 12.6838 6.69544 14.3926C6.91887 15.2765 8.06547 16.374 8.97636 16.5778C9.0181 16.5852 9.04756 16.622 9.04756 16.6637V19.1656C9.04756 19.2908 9.19979 19.3522 9.28818 19.2614L10.4765 18.0411C10.4765 18.0411 11.4242 17.0688 11.5936 16.8921C11.6108 16.8749 11.6329 16.8651 11.6575 16.8675C12.8581 16.9019 14.0612 16.8037 15.2544 16.5778C16.1653 16.374 17.3119 15.2765 17.5353 14.3926C17.9085 12.6838 17.9085 10.9504 17.5353 9.24152C17.3144 8.35764 16.1678 7.26014 15.2544 7.05636ZM15.2863 14.5203C15.1046 14.9082 14.8395 15.2299 14.4565 15.4336C14.3484 15.4926 14.2208 15.5098 14.098 15.549C13.958 15.5073 13.8255 15.4778 13.7002 15.4263C12.4162 14.8935 11.2327 14.206 10.2973 13.1527C9.76449 12.5536 9.3471 11.876 8.996 11.1615C8.82905 10.8227 8.6891 10.4691 8.54424 10.118C8.41411 9.79886 8.60562 9.46741 8.8094 9.22679C9.00091 9.00091 9.24398 8.82659 9.50915 8.70137C9.71539 8.60071 9.92163 8.65963 10.0714 8.83395C10.3979 9.21452 10.6999 9.61227 10.943 10.0518C11.0928 10.3243 11.051 10.6582 10.7736 10.8423C10.7368 10.8669 10.6999 10.8964 10.6656 10.9258C10.587 10.9921 10.506 11.0486 10.452 11.1345C10.3857 11.245 10.3808 11.3727 10.425 11.493C10.7589 12.4112 11.3236 13.1257 12.2467 13.5112C12.3941 13.5726 12.5438 13.6438 12.7132 13.6241C12.998 13.5898 13.0913 13.2779 13.2902 13.1134C13.4866 12.9539 13.7346 12.9514 13.9458 13.084C14.1569 13.2166 14.3607 13.3614 14.5645 13.5063C14.7634 13.6487 14.9622 13.7862 15.1464 13.9482C15.3256 14.1054 15.387 14.3091 15.2863 14.5203ZM13.629 11.5274C13.5505 11.5298 13.5799 11.5274 13.6119 11.5274C13.4842 11.5224 13.413 11.4463 13.4007 11.3236C13.3909 11.2327 13.3835 11.1419 13.3614 11.0559C13.3197 10.8841 13.2288 10.7245 13.084 10.6189C13.0152 10.5698 12.9391 10.533 12.8581 10.5084C12.755 10.479 12.6469 10.4863 12.5438 10.4618C12.4309 10.4348 12.3695 10.3439 12.3867 10.2384C12.4039 10.1426 12.4947 10.0689 12.6003 10.0763C13.2509 10.123 13.7174 10.4593 13.7837 11.2278C13.7886 11.2818 13.7935 11.3383 13.7813 11.3899C13.7616 11.4733 13.7027 11.5175 13.6413 11.5249C13.6438 11.5249 13.6413 11.5249 13.629 11.5274ZM13.2239 9.77186C13.0251 9.67365 12.809 9.61227 12.588 9.57789C12.4923 9.56316 12.3965 9.55334 12.2983 9.53861C12.1829 9.52142 12.1191 9.44776 12.124 9.33237C12.1289 9.22434 12.2075 9.14822 12.3253 9.15314C12.7108 9.17523 13.084 9.25871 13.4253 9.4404C14.1225 9.80869 14.5203 10.393 14.6357 11.1713C14.6406 11.2057 14.6504 11.2425 14.6529 11.2769C14.6602 11.3653 14.6627 11.4512 14.6701 11.5666C14.6676 11.5887 14.6652 11.6378 14.6529 11.6845C14.6087 11.8539 14.3533 11.8735 14.2944 11.7041C14.2772 11.6526 14.2748 11.5961 14.2748 11.5421C14.2748 11.1861 14.1962 10.8301 14.017 10.5207C13.8353 10.2015 13.5554 9.9339 13.2239 9.77186ZM15.3772 12.178C15.2421 12.1804 15.1808 12.0675 15.1734 11.9472C15.1562 11.709 15.1439 11.4684 15.112 11.2303C14.9377 9.9781 13.9409 8.94198 12.6936 8.72101C12.507 8.68664 12.313 8.67927 12.124 8.65963C12.0037 8.64736 11.8465 8.63999 11.8195 8.49022C11.7974 8.365 11.903 8.26434 12.0209 8.25943C12.0528 8.25697 12.0847 8.25943 12.1191 8.25943C13.7322 8.30362 12.2173 8.26188 12.124 8.25943C13.8034 8.30853 15.1808 9.42321 15.4754 11.083C15.5269 11.3653 15.5441 11.655 15.5662 11.9423C15.5761 12.0601 15.5073 12.1755 15.3772 12.178Z" fill="white"/>
<path d="M0 11.9988C0 18.6255 5.37207 24 11.9988 24C18.6255 24 23.9975 18.6279 23.9975 12.0012C24 5.37207 18.6279 0 12.0012 0C5.37207 0 0 5.37207 0 11.9988ZM18.7482 14.6676L18.7433 14.6848C18.4094 16.0401 16.897 17.4912 15.5122 17.7956L15.4975 17.7981C14.3754 18.0117 13.246 18.1197 12.1166 18.1197C11.7852 18.1197 11.4513 18.1099 11.1198 18.0902L9.58772 19.6812C9.20962 20.0765 8.54179 19.8064 8.54179 19.2614V17.749C7.20614 17.3684 5.8091 15.9812 5.48747 14.6848L5.48501 14.6676C5.07008 12.7771 5.07008 10.8595 5.48501 8.96655L5.48747 8.94936C5.82384 7.59407 7.33381 6.14302 8.71857 5.83857L8.73575 5.83611C10.9774 5.4089 13.2534 5.4089 15.495 5.83611L15.5098 5.83857C16.897 6.14056 18.407 7.59407 18.7409 8.94936L18.7458 8.96655C19.1632 10.8595 19.1632 12.7771 18.7482 14.6676Z" fill="white"/>
</svg>
