<svg width="24" height="24" viewBox="0 0 24 24" fill="none" xmlns="http://www.w3.org/2000/svg">
<path d="M12.0012 0C5.37453 0 0 5.37453 0 12.0012C0 18.6279 5.37453 24.0025 12.0012 24.0025C18.6279 24.0025 24.0025 18.6279 24.0025 12.0012C24.0025 5.37453 18.6255 0 12.0012 0ZM12.2541 18.9864H12.2517C11.0486 18.9864 9.86762 18.6844 8.81923 18.1123L5.01115 19.1116L6.03008 15.3919C5.40154 14.3042 5.07008 13.0668 5.07253 11.8024C5.07499 7.8445 8.29627 4.62322 12.2541 4.62322C14.1741 4.62322 15.9787 5.37207 17.334 6.72982C18.6893 8.08757 19.4357 9.89218 19.4357 11.8097C19.4357 15.7651 16.212 18.9864 12.2541 18.9864Z" fill="white"/>
<path d="M12.2566 5.83362C8.9641 5.83362 6.28543 8.50983 6.28543 11.7999C6.28543 12.9268 6.5997 14.0243 7.19878 14.9745L7.34119 15.2004L6.7372 17.4027L8.99602 16.811L9.21454 16.9411C10.1303 17.4837 11.1812 17.7735 12.2517 17.7735H12.2541C15.5442 17.7735 18.2228 15.0972 18.2228 11.8048C18.2228 10.2113 17.6041 8.71116 16.4771 7.58175C15.3502 6.45725 13.85 5.83607 12.2566 5.83362ZM15.7676 14.368C15.6178 14.7879 14.9009 15.1685 14.5571 15.22C14.2478 15.2667 13.8574 15.2863 13.4277 15.1488C13.1675 15.0653 12.8336 14.9548 12.4039 14.7707C10.6042 13.9948 9.42814 12.1829 9.3373 12.0626C9.24645 11.9423 8.60564 11.0903 8.60564 10.2064C8.60564 9.32252 9.06968 8.8904 9.23418 8.70871C9.39868 8.52948 9.59264 8.48528 9.71295 8.48528C9.83326 8.48528 9.95111 8.48528 10.0567 8.49265C10.1672 8.49756 10.3145 8.45091 10.4593 8.79955C10.6091 9.15802 10.9676 10.0419 11.0118 10.1303C11.056 10.2211 11.0854 10.3243 11.0265 10.4446C10.9676 10.5649 10.7687 10.8227 10.5772 11.0584C10.4986 11.1566 10.3931 11.245 10.4986 11.4242C10.6042 11.6034 10.9627 12.1902 11.4979 12.6666C12.1829 13.2779 12.7624 13.467 12.9416 13.5578C13.1208 13.6487 13.2264 13.6315 13.3295 13.5136C13.4351 13.3933 13.7788 12.9907 13.8967 12.809C14.017 12.6297 14.1348 12.6592 14.2993 12.7181C14.4638 12.777 15.3453 13.2116 15.5245 13.3025C15.7037 13.3933 15.824 13.4375 15.8682 13.5112C15.9173 13.5897 15.9173 13.9482 15.7676 14.368Z" fill="white"/>
</svg>
